<?xml version="1.0" encoding="utf-8" standalone="no"?>
<!DOCTYPE svg PUBLIC "-//W3C//DTD SVG 1.1//EN"
  "http://www.w3.org/Graphics/SVG/1.1/DTD/svg11.dtd">
<!-- Created with matplotlib (http://matplotlib.org/) -->
<svg height="256pt" version="1.1" viewBox="0 0 385 256" width="385pt" xmlns="http://www.w3.org/2000/svg" xmlns:xlink="http://www.w3.org/1999/xlink">
 <defs>
  <style type="text/css">
*{stroke-linecap:butt;stroke-linejoin:round;stroke-miterlimit:100000;}
  </style>
 </defs>
 <g id="figure_1">
  <g id="patch_1">
   <path d="M 0 256.117188 
L 385.434375 256.117188 
L 385.434375 0 
L 0 0 
L 0 256.117188 
z
" style="fill:none;"/>
  </g>
  <g id="axes_1">
   <g id="patch_2">
    <path d="M 35.482813 235.239062 
L 370.282813 235.239062 
L 370.282813 12.039062 
L 35.482813 12.039062 
z
" style="fill:#ffffff;"/>
   </g>
   <g id="line2d_1">
    <path clip-path="url(#pf25f367b79)" d="M 35.482813 207.232749 
L 38.098438 165.437728 
L 40.714063 113.73357 
L 43.329688 69.547719 
L 45.945313 47.773491 
L 48.560938 55.750126 
L 51.176563 90.789011 
L 56.407813 189.671744 
L 59.023438 220.1861 
L 61.639063 222.337791 
L 64.254688 195.401565 
L 66.870313 148.456568 
L 69.485938 97.326117 
L 72.101562 59.244282 
L 74.717188 47.046954 
L 77.332813 64.845376 
L 79.948438 106.640397 
L 82.564063 158.344555 
L 85.179688 202.530406 
L 87.795313 224.304634 
L 90.410938 216.327999 
L 93.026563 181.289114 
L 98.257813 82.406381 
L 100.873438 51.892025 
L 103.489063 49.740334 
L 106.104688 76.67656 
L 108.720313 123.621557 
L 111.335938 174.752008 
L 113.951563 212.833843 
L 116.567188 225.031171 
L 119.182813 207.232749 
L 121.798438 165.437728 
L 124.414063 113.73357 
L 127.029688 69.547719 
L 129.645313 47.773491 
L 132.260938 55.750126 
L 134.876563 90.789011 
L 140.107813 189.671744 
L 142.723438 220.1861 
L 145.339063 222.337791 
L 147.954688 195.401565 
L 150.570312 148.456568 
L 153.185938 97.326117 
L 155.801563 59.244282 
L 158.417188 47.046954 
L 161.032813 64.845376 
L 163.648438 106.640397 
L 166.264063 158.344555 
L 168.879687 202.530406 
L 171.495313 224.304634 
L 174.110938 216.327999 
L 176.726562 181.289114 
L 181.957812 82.406381 
L 184.573438 51.892025 
L 187.189063 49.740334 
L 189.804688 76.67656 
L 192.420313 123.621557 
L 195.035937 174.752008 
L 197.651563 212.833843 
L 200.267188 225.031171 
L 202.882812 207.232749 
L 205.498438 165.437728 
L 208.114062 113.73357 
L 210.729688 69.547719 
L 213.345313 47.773491 
L 215.960938 55.750126 
L 218.576563 90.789011 
L 223.807813 189.671744 
L 226.423438 220.1861 
L 229.039062 222.337791 
L 231.654688 195.401565 
L 234.270312 148.456568 
L 236.885938 97.326117 
L 239.501563 59.244282 
L 242.117188 47.046954 
L 244.732813 64.845376 
L 247.348437 106.640397 
L 249.964063 158.344555 
L 252.579688 202.530406 
L 255.195312 224.304634 
L 257.810938 216.327999 
L 260.426562 181.289114 
L 265.657813 82.406381 
L 268.273438 51.892025 
L 270.889063 49.740334 
L 273.504687 76.67656 
L 276.120313 123.621557 
L 278.735938 174.752008 
L 281.351562 212.833843 
L 283.967188 225.031171 
L 286.582813 207.232749 
L 289.198438 165.437728 
L 291.814063 113.73357 
L 294.429688 69.547719 
L 297.045313 47.773491 
L 299.660938 55.750126 
L 302.276563 90.789011 
L 307.507813 189.671744 
L 310.123438 220.1861 
L 312.739063 222.337791 
L 315.354688 195.401565 
L 317.970313 148.456568 
L 320.585938 97.326117 
L 323.201563 59.244282 
L 325.817188 47.046954 
L 328.432813 64.845376 
L 331.048438 106.640397 
L 333.664063 158.344555 
L 336.279688 202.530406 
L 338.895313 224.304634 
L 341.510938 216.327999 
L 344.126563 181.289114 
L 349.357813 82.406381 
L 351.973438 51.892025 
L 354.589063 49.740334 
L 357.204688 76.67656 
L 359.820313 123.621557 
L 362.435938 174.752008 
L 365.051563 212.833843 
L 367.667188 225.031171 
L 367.667188 225.031171 
" style="fill:none;stroke:#0000ff;stroke-linecap:square;"/>
   </g>
   <g id="line2d_2">
    <path clip-path="url(#pf25f367b79)" d="M 35.482813 136.039062 
L 38.098438 108.482779 
L 40.714063 68.169611 
L 43.329688 33.096551 
L 45.945313 18.612557 
L 48.560938 32.421378 
L 51.176563 72.126013 
L 53.792188 126.149516 
L 56.407813 177.727425 
L 59.023438 210.630645 
L 61.639063 214.693427 
L 64.254688 189.286074 
L 66.870313 143.564176 
L 69.485938 93.412203 
L 72.101562 56.11315 
L 74.717188 44.542049 
L 77.332813 62.841452 
L 79.948438 105.037257 
L 82.564063 157.062043 
L 85.179688 201.504397 
L 87.795313 223.483826 
L 90.410938 215.671354 
L 93.026563 180.763797 
L 98.257813 82.070178 
L 100.873438 51.623063 
L 103.489063 49.525164 
L 106.104688 76.504424 
L 108.720313 123.483848 
L 111.335938 174.641841 
L 113.951563 212.74571 
L 116.567188 224.960664 
L 119.182813 207.176344 
L 121.798438 165.392604 
L 124.414063 113.697471 
L 127.029688 69.518839 
L 129.645313 47.750388 
L 132.260938 55.731643 
L 134.876563 90.774225 
L 140.107813 189.662281 
L 142.723438 220.17853 
L 145.339063 222.331735 
L 147.954688 195.39672 
L 150.570312 148.452692 
L 153.185938 97.323016 
L 155.801563 59.241801 
L 158.417188 47.04497 
L 161.032813 64.843788 
L 163.648438 106.639127 
L 166.264063 158.343539 
L 168.879687 202.529593 
L 171.495313 224.303983 
L 174.110938 216.327479 
L 176.726562 181.288698 
L 181.957812 82.406115 
L 184.573438 51.891812 
L 187.189063 49.740163 
L 189.804688 76.676423 
L 192.420313 123.621447 
L 195.035937 174.75192 
L 197.651563 212.833774 
L 200.267188 225.031115 
L 202.882812 207.232704 
L 205.498438 165.437693 
L 208.114062 113.733542 
L 210.729688 69.547696 
L 213.345313 47.773473 
L 215.960938 55.750111 
L 218.576563 90.788999 
L 223.807813 189.671736 
L 226.423438 220.186094 
L 229.039062 222.337786 
L 231.654688 195.401562 
L 234.270312 148.456565 
L 236.885938 97.326115 
L 239.501563 59.24428 
L 242.117188 47.046953 
L 244.732813 64.845375 
L 247.348437 106.640396 
L 249.964063 158.344554 
L 252.579688 202.530406 
L 255.195312 224.304633 
L 257.810938 216.327999 
L 260.426562 181.289114 
L 265.657813 82.406381 
L 268.273438 51.892024 
L 270.889063 49.740334 
L 273.504687 76.67656 
L 276.120313 123.621556 
L 278.735938 174.752008 
L 281.351562 212.833843 
L 283.967188 225.031171 
L 286.582813 207.232749 
L 289.198438 165.437728 
L 291.814063 113.73357 
L 294.429688 69.547719 
L 297.045313 47.773491 
L 299.660938 55.750125 
L 302.276563 90.789011 
L 307.507813 189.671744 
L 310.123438 220.1861 
L 312.739063 222.337791 
L 315.354688 195.401565 
L 317.970313 148.456568 
L 320.585938 97.326117 
L 323.201563 59.244282 
L 325.817188 47.046954 
L 328.432813 64.845376 
L 331.048438 106.640397 
L 333.664063 158.344555 
L 336.279688 202.530406 
L 338.895313 224.304634 
L 341.510938 216.327999 
L 344.126563 181.289114 
L 349.357813 82.406381 
L 351.973438 51.892025 
L 354.589063 49.740334 
L 357.204688 76.67656 
L 359.820313 123.621557 
L 362.435938 174.752008 
L 365.051563 212.833843 
L 367.667188 225.031171 
L 367.667188 225.031171 
" style="fill:none;stroke:#008000;stroke-linecap:square;"/>
   </g>
   <g id="patch_3">
    <path d="M 370.282813 235.239062 
L 370.282813 12.039063 
" style="fill:none;stroke:#000000;stroke-linecap:square;stroke-linejoin:miter;"/>
   </g>
   <g id="patch_4">
    <path d="M 35.482813 235.239062 
L 35.482813 12.039063 
" style="fill:none;stroke:#000000;stroke-linecap:square;stroke-linejoin:miter;"/>
   </g>
   <g id="patch_5">
    <path d="M 35.482813 12.039062 
L 370.282813 12.039062 
" style="fill:none;stroke:#000000;stroke-linecap:square;stroke-linejoin:miter;"/>
   </g>
   <g id="patch_6">
    <path d="M 35.482813 235.239062 
L 370.282813 235.239062 
" style="fill:none;stroke:#000000;stroke-linecap:square;stroke-linejoin:miter;"/>
   </g>
   <g id="matplotlib.axis_1">
    <g id="xtick_1">
     <g id="line2d_3">
      <defs>
       <path d="M 0 0 
L 0 -4 
" id="m9b553196c9" style="stroke:#000000;stroke-width:0.5;"/>
      </defs>
      <g>
       <use style="stroke:#000000;stroke-width:0.5;" x="35.4828125" xlink:href="#m9b553196c9" y="235.2390625"/>
      </g>
     </g>
     <g id="line2d_4">
      <defs>
       <path d="M 0 0 
L 0 4 
" id="mb37b937a7f" style="stroke:#000000;stroke-width:0.5;"/>
      </defs>
      <g>
       <use style="stroke:#000000;stroke-width:0.5;" x="35.4828125" xlink:href="#mb37b937a7f" y="12.0390625"/>
      </g>
     </g>
     <g id="text_1">
      <!-- 0.0 -->
      <defs>
       <path d="M 31.78125 66.40625 
Q 24.171875 66.40625 20.328125 58.90625 
Q 16.5 51.421875 16.5 36.375 
Q 16.5 21.390625 20.328125 13.890625 
Q 24.171875 6.390625 31.78125 6.390625 
Q 39.453125 6.390625 43.28125 13.890625 
Q 47.125 21.390625 47.125 36.375 
Q 47.125 51.421875 43.28125 58.90625 
Q 39.453125 66.40625 31.78125 66.40625 
M 31.78125 74.21875 
Q 44.046875 74.21875 50.515625 64.515625 
Q 56.984375 54.828125 56.984375 36.375 
Q 56.984375 17.96875 50.515625 8.265625 
Q 44.046875 -1.421875 31.78125 -1.421875 
Q 19.53125 -1.421875 13.0625 8.265625 
Q 6.59375 17.96875 6.59375 36.375 
Q 6.59375 54.828125 13.0625 64.515625 
Q 19.53125 74.21875 31.78125 74.21875 
" id="DejaVuSans-30"/>
       <path d="M 10.6875 12.40625 
L 21 12.40625 
L 21 0 
L 10.6875 0 
z
" id="DejaVuSans-2e"/>
      </defs>
      <g transform="translate(27.53125 246.8375)scale(0.1 -0.1)">
       <use xlink:href="#DejaVuSans-30"/>
       <use x="63.623046875" xlink:href="#DejaVuSans-2e"/>
       <use x="95.41015625" xlink:href="#DejaVuSans-30"/>
      </g>
     </g>
    </g>
    <g id="xtick_2">
     <g id="line2d_5">
      <g>
       <use style="stroke:#000000;stroke-width:0.5;" x="77.3328125" xlink:href="#m9b553196c9" y="235.2390625"/>
      </g>
     </g>
     <g id="line2d_6">
      <g>
       <use style="stroke:#000000;stroke-width:0.5;" x="77.3328125" xlink:href="#mb37b937a7f" y="12.0390625"/>
      </g>
     </g>
     <g id="text_2">
      <!-- 0.5 -->
      <defs>
       <path d="M 10.796875 72.90625 
L 49.515625 72.90625 
L 49.515625 64.59375 
L 19.828125 64.59375 
L 19.828125 46.734375 
Q 21.96875 47.46875 24.109375 47.828125 
Q 26.265625 48.1875 28.421875 48.1875 
Q 40.625 48.1875 47.75 41.5 
Q 54.890625 34.8125 54.890625 23.390625 
Q 54.890625 11.625 47.5625 5.09375 
Q 40.234375 -1.421875 26.90625 -1.421875 
Q 22.3125 -1.421875 17.546875 -0.640625 
Q 12.796875 0.140625 7.71875 1.703125 
L 7.71875 11.625 
Q 12.109375 9.234375 16.796875 8.0625 
Q 21.484375 6.890625 26.703125 6.890625 
Q 35.15625 6.890625 40.078125 11.328125 
Q 45.015625 15.765625 45.015625 23.390625 
Q 45.015625 31 40.078125 35.4375 
Q 35.15625 39.890625 26.703125 39.890625 
Q 22.75 39.890625 18.8125 39.015625 
Q 14.890625 38.140625 10.796875 36.28125 
z
" id="DejaVuSans-35"/>
      </defs>
      <g transform="translate(69.38125 246.8375)scale(0.1 -0.1)">
       <use xlink:href="#DejaVuSans-30"/>
       <use x="63.623046875" xlink:href="#DejaVuSans-2e"/>
       <use x="95.41015625" xlink:href="#DejaVuSans-35"/>
      </g>
     </g>
    </g>
    <g id="xtick_3">
     <g id="line2d_7">
      <g>
       <use style="stroke:#000000;stroke-width:0.5;" x="119.1828125" xlink:href="#m9b553196c9" y="235.2390625"/>
      </g>
     </g>
     <g id="line2d_8">
      <g>
       <use style="stroke:#000000;stroke-width:0.5;" x="119.1828125" xlink:href="#mb37b937a7f" y="12.0390625"/>
      </g>
     </g>
     <g id="text_3">
      <!-- 1.0 -->
      <defs>
       <path d="M 12.40625 8.296875 
L 28.515625 8.296875 
L 28.515625 63.921875 
L 10.984375 60.40625 
L 10.984375 69.390625 
L 28.421875 72.90625 
L 38.28125 72.90625 
L 38.28125 8.296875 
L 54.390625 8.296875 
L 54.390625 0 
L 12.40625 0 
z
" id="DejaVuSans-31"/>
      </defs>
      <g transform="translate(111.23125 246.8375)scale(0.1 -0.1)">
       <use xlink:href="#DejaVuSans-31"/>
       <use x="63.623046875" xlink:href="#DejaVuSans-2e"/>
       <use x="95.41015625" xlink:href="#DejaVuSans-30"/>
      </g>
     </g>
    </g>
    <g id="xtick_4">
     <g id="line2d_9">
      <g>
       <use style="stroke:#000000;stroke-width:0.5;" x="161.0328125" xlink:href="#m9b553196c9" y="235.2390625"/>
      </g>
     </g>
     <g id="line2d_10">
      <g>
       <use style="stroke:#000000;stroke-width:0.5;" x="161.0328125" xlink:href="#mb37b937a7f" y="12.0390625"/>
      </g>
     </g>
     <g id="text_4">
      <!-- 1.5 -->
      <g transform="translate(153.08125 246.8375)scale(0.1 -0.1)">
       <use xlink:href="#DejaVuSans-31"/>
       <use x="63.623046875" xlink:href="#DejaVuSans-2e"/>
       <use x="95.41015625" xlink:href="#DejaVuSans-35"/>
      </g>
     </g>
    </g>
    <g id="xtick_5">
     <g id="line2d_11">
      <g>
       <use style="stroke:#000000;stroke-width:0.5;" x="202.8828125" xlink:href="#m9b553196c9" y="235.2390625"/>
      </g>
     </g>
     <g id="line2d_12">
      <g>
       <use style="stroke:#000000;stroke-width:0.5;" x="202.8828125" xlink:href="#mb37b937a7f" y="12.0390625"/>
      </g>
     </g>
     <g id="text_5">
      <!-- 2.0 -->
      <defs>
       <path d="M 19.1875 8.296875 
L 53.609375 8.296875 
L 53.609375 0 
L 7.328125 0 
L 7.328125 8.296875 
Q 12.9375 14.109375 22.625 23.890625 
Q 32.328125 33.6875 34.8125 36.53125 
Q 39.546875 41.84375 41.421875 45.53125 
Q 43.3125 49.21875 43.3125 52.78125 
Q 43.3125 58.59375 39.234375 62.25 
Q 35.15625 65.921875 28.609375 65.921875 
Q 23.96875 65.921875 18.8125 64.3125 
Q 13.671875 62.703125 7.8125 59.421875 
L 7.8125 69.390625 
Q 13.765625 71.78125 18.9375 73 
Q 24.125 74.21875 28.421875 74.21875 
Q 39.75 74.21875 46.484375 68.546875 
Q 53.21875 62.890625 53.21875 53.421875 
Q 53.21875 48.921875 51.53125 44.890625 
Q 49.859375 40.875 45.40625 35.40625 
Q 44.1875 33.984375 37.640625 27.21875 
Q 31.109375 20.453125 19.1875 8.296875 
" id="DejaVuSans-32"/>
      </defs>
      <g transform="translate(194.93125 246.8375)scale(0.1 -0.1)">
       <use xlink:href="#DejaVuSans-32"/>
       <use x="63.623046875" xlink:href="#DejaVuSans-2e"/>
       <use x="95.41015625" xlink:href="#DejaVuSans-30"/>
      </g>
     </g>
    </g>
    <g id="xtick_6">
     <g id="line2d_13">
      <g>
       <use style="stroke:#000000;stroke-width:0.5;" x="244.7328125" xlink:href="#m9b553196c9" y="235.2390625"/>
      </g>
     </g>
     <g id="line2d_14">
      <g>
       <use style="stroke:#000000;stroke-width:0.5;" x="244.7328125" xlink:href="#mb37b937a7f" y="12.0390625"/>
      </g>
     </g>
     <g id="text_6">
      <!-- 2.5 -->
      <g transform="translate(236.78125 246.8375)scale(0.1 -0.1)">
       <use xlink:href="#DejaVuSans-32"/>
       <use x="63.623046875" xlink:href="#DejaVuSans-2e"/>
       <use x="95.41015625" xlink:href="#DejaVuSans-35"/>
      </g>
     </g>
    </g>
    <g id="xtick_7">
     <g id="line2d_15">
      <g>
       <use style="stroke:#000000;stroke-width:0.5;" x="286.5828125" xlink:href="#m9b553196c9" y="235.2390625"/>
      </g>
     </g>
     <g id="line2d_16">
      <g>
       <use style="stroke:#000000;stroke-width:0.5;" x="286.5828125" xlink:href="#mb37b937a7f" y="12.0390625"/>
      </g>
     </g>
     <g id="text_7">
      <!-- 3.0 -->
      <defs>
       <path d="M 40.578125 39.3125 
Q 47.65625 37.796875 51.625 33 
Q 55.609375 28.21875 55.609375 21.1875 
Q 55.609375 10.40625 48.1875 4.484375 
Q 40.765625 -1.421875 27.09375 -1.421875 
Q 22.515625 -1.421875 17.65625 -0.515625 
Q 12.796875 0.390625 7.625 2.203125 
L 7.625 11.71875 
Q 11.71875 9.328125 16.59375 8.109375 
Q 21.484375 6.890625 26.8125 6.890625 
Q 36.078125 6.890625 40.9375 10.546875 
Q 45.796875 14.203125 45.796875 21.1875 
Q 45.796875 27.640625 41.28125 31.265625 
Q 36.765625 34.90625 28.71875 34.90625 
L 20.21875 34.90625 
L 20.21875 43.015625 
L 29.109375 43.015625 
Q 36.375 43.015625 40.234375 45.921875 
Q 44.09375 48.828125 44.09375 54.296875 
Q 44.09375 59.90625 40.109375 62.90625 
Q 36.140625 65.921875 28.71875 65.921875 
Q 24.65625 65.921875 20.015625 65.03125 
Q 15.375 64.15625 9.8125 62.3125 
L 9.8125 71.09375 
Q 15.4375 72.65625 20.34375 73.4375 
Q 25.25 74.21875 29.59375 74.21875 
Q 40.828125 74.21875 47.359375 69.109375 
Q 53.90625 64.015625 53.90625 55.328125 
Q 53.90625 49.265625 50.4375 45.09375 
Q 46.96875 40.921875 40.578125 39.3125 
" id="DejaVuSans-33"/>
      </defs>
      <g transform="translate(278.63125 246.8375)scale(0.1 -0.1)">
       <use xlink:href="#DejaVuSans-33"/>
       <use x="63.623046875" xlink:href="#DejaVuSans-2e"/>
       <use x="95.41015625" xlink:href="#DejaVuSans-30"/>
      </g>
     </g>
    </g>
    <g id="xtick_8">
     <g id="line2d_17">
      <g>
       <use style="stroke:#000000;stroke-width:0.5;" x="328.4328125" xlink:href="#m9b553196c9" y="235.2390625"/>
      </g>
     </g>
     <g id="line2d_18">
      <g>
       <use style="stroke:#000000;stroke-width:0.5;" x="328.4328125" xlink:href="#mb37b937a7f" y="12.0390625"/>
      </g>
     </g>
     <g id="text_8">
      <!-- 3.5 -->
      <g transform="translate(320.48125 246.8375)scale(0.1 -0.1)">
       <use xlink:href="#DejaVuSans-33"/>
       <use x="63.623046875" xlink:href="#DejaVuSans-2e"/>
       <use x="95.41015625" xlink:href="#DejaVuSans-35"/>
      </g>
     </g>
    </g>
    <g id="xtick_9">
     <g id="line2d_19">
      <g>
       <use style="stroke:#000000;stroke-width:0.5;" x="370.2828125" xlink:href="#m9b553196c9" y="235.2390625"/>
      </g>
     </g>
     <g id="line2d_20">
      <g>
       <use style="stroke:#000000;stroke-width:0.5;" x="370.2828125" xlink:href="#mb37b937a7f" y="12.0390625"/>
      </g>
     </g>
     <g id="text_9">
      <!-- 4.0 -->
      <defs>
       <path d="M 37.796875 64.3125 
L 12.890625 25.390625 
L 37.796875 25.390625 
z
M 35.203125 72.90625 
L 47.609375 72.90625 
L 47.609375 25.390625 
L 58.015625 25.390625 
L 58.015625 17.1875 
L 47.609375 17.1875 
L 47.609375 0 
L 37.796875 0 
L 37.796875 17.1875 
L 4.890625 17.1875 
L 4.890625 26.703125 
z
" id="DejaVuSans-34"/>
      </defs>
      <g transform="translate(362.33125 246.8375)scale(0.1 -0.1)">
       <use xlink:href="#DejaVuSans-34"/>
       <use x="63.623046875" xlink:href="#DejaVuSans-2e"/>
       <use x="95.41015625" xlink:href="#DejaVuSans-30"/>
      </g>
     </g>
    </g>
   </g>
   <g id="matplotlib.axis_2">
    <g id="ytick_1">
     <g id="line2d_21">
      <defs>
       <path d="M 0 0 
L 4 0 
" id="mf5669f71ea" style="stroke:#000000;stroke-width:0.5;"/>
      </defs>
      <g>
       <use style="stroke:#000000;stroke-width:0.5;" x="35.4828125" xlink:href="#mf5669f71ea" y="235.2390625"/>
      </g>
     </g>
     <g id="line2d_22">
      <defs>
       <path d="M 0 0 
L -4 0 
" id="md014295c16" style="stroke:#000000;stroke-width:0.5;"/>
      </defs>
      <g>
       <use style="stroke:#000000;stroke-width:0.5;" x="370.2828125" xlink:href="#md014295c16" y="235.2390625"/>
      </g>
     </g>
     <g id="text_10">
      <!-- −2.0 -->
      <defs>
       <path d="M 10.59375 35.5 
L 73.1875 35.5 
L 73.1875 27.203125 
L 10.59375 27.203125 
z
" id="DejaVuSans-2212"/>
      </defs>
      <g transform="translate(7.2 237.9984375)scale(0.1 -0.1)">
       <use xlink:href="#DejaVuSans-2212"/>
       <use x="83.7890625" xlink:href="#DejaVuSans-32"/>
       <use x="147.412109375" xlink:href="#DejaVuSans-2e"/>
       <use x="179.19921875" xlink:href="#DejaVuSans-30"/>
      </g>
     </g>
    </g>
    <g id="ytick_2">
     <g id="line2d_23">
      <g>
       <use style="stroke:#000000;stroke-width:0.5;" x="35.4828125" xlink:href="#mf5669f71ea" y="210.4390625"/>
      </g>
     </g>
     <g id="line2d_24">
      <g>
       <use style="stroke:#000000;stroke-width:0.5;" x="370.2828125" xlink:href="#md014295c16" y="210.4390625"/>
      </g>
     </g>
     <g id="text_11">
      <!-- −1.5 -->
      <g transform="translate(7.2 213.1984375)scale(0.1 -0.1)">
       <use xlink:href="#DejaVuSans-2212"/>
       <use x="83.7890625" xlink:href="#DejaVuSans-31"/>
       <use x="147.412109375" xlink:href="#DejaVuSans-2e"/>
       <use x="179.19921875" xlink:href="#DejaVuSans-35"/>
      </g>
     </g>
    </g>
    <g id="ytick_3">
     <g id="line2d_25">
      <g>
       <use style="stroke:#000000;stroke-width:0.5;" x="35.4828125" xlink:href="#mf5669f71ea" y="185.6390625"/>
      </g>
     </g>
     <g id="line2d_26">
      <g>
       <use style="stroke:#000000;stroke-width:0.5;" x="370.2828125" xlink:href="#md014295c16" y="185.6390625"/>
      </g>
     </g>
     <g id="text_12">
      <!-- −1.0 -->
      <g transform="translate(7.2 188.3984375)scale(0.1 -0.1)">
       <use xlink:href="#DejaVuSans-2212"/>
       <use x="83.7890625" xlink:href="#DejaVuSans-31"/>
       <use x="147.412109375" xlink:href="#DejaVuSans-2e"/>
       <use x="179.19921875" xlink:href="#DejaVuSans-30"/>
      </g>
     </g>
    </g>
    <g id="ytick_4">
     <g id="line2d_27">
      <g>
       <use style="stroke:#000000;stroke-width:0.5;" x="35.4828125" xlink:href="#mf5669f71ea" y="160.8390625"/>
      </g>
     </g>
     <g id="line2d_28">
      <g>
       <use style="stroke:#000000;stroke-width:0.5;" x="370.2828125" xlink:href="#md014295c16" y="160.8390625"/>
      </g>
     </g>
     <g id="text_13">
      <!-- −0.5 -->
      <g transform="translate(7.2 163.5984375)scale(0.1 -0.1)">
       <use xlink:href="#DejaVuSans-2212"/>
       <use x="83.7890625" xlink:href="#DejaVuSans-30"/>
       <use x="147.412109375" xlink:href="#DejaVuSans-2e"/>
       <use x="179.19921875" xlink:href="#DejaVuSans-35"/>
      </g>
     </g>
    </g>
    <g id="ytick_5">
     <g id="line2d_29">
      <g>
       <use style="stroke:#000000;stroke-width:0.5;" x="35.4828125" xlink:href="#mf5669f71ea" y="136.0390625"/>
      </g>
     </g>
     <g id="line2d_30">
      <g>
       <use style="stroke:#000000;stroke-width:0.5;" x="370.2828125" xlink:href="#md014295c16" y="136.0390625"/>
      </g>
     </g>
     <g id="text_14">
      <!-- 0.0 -->
      <g transform="translate(15.5796875 138.7984375)scale(0.1 -0.1)">
       <use xlink:href="#DejaVuSans-30"/>
       <use x="63.623046875" xlink:href="#DejaVuSans-2e"/>
       <use x="95.41015625" xlink:href="#DejaVuSans-30"/>
      </g>
     </g>
    </g>
    <g id="ytick_6">
     <g id="line2d_31">
      <g>
       <use style="stroke:#000000;stroke-width:0.5;" x="35.4828125" xlink:href="#mf5669f71ea" y="111.2390625"/>
      </g>
     </g>
     <g id="line2d_32">
      <g>
       <use style="stroke:#000000;stroke-width:0.5;" x="370.2828125" xlink:href="#md014295c16" y="111.2390625"/>
      </g>
     </g>
     <g id="text_15">
      <!-- 0.5 -->
      <g transform="translate(15.5796875 113.9984375)scale(0.1 -0.1)">
       <use xlink:href="#DejaVuSans-30"/>
       <use x="63.623046875" xlink:href="#DejaVuSans-2e"/>
       <use x="95.41015625" xlink:href="#DejaVuSans-35"/>
      </g>
     </g>
    </g>
    <g id="ytick_7">
     <g id="line2d_33">
      <g>
       <use style="stroke:#000000;stroke-width:0.5;" x="35.4828125" xlink:href="#mf5669f71ea" y="86.4390625"/>
      </g>
     </g>
     <g id="line2d_34">
      <g>
       <use style="stroke:#000000;stroke-width:0.5;" x="370.2828125" xlink:href="#md014295c16" y="86.4390625"/>
      </g>
     </g>
     <g id="text_16">
      <!-- 1.0 -->
      <g transform="translate(15.5796875 89.1984375)scale(0.1 -0.1)">
       <use xlink:href="#DejaVuSans-31"/>
       <use x="63.623046875" xlink:href="#DejaVuSans-2e"/>
       <use x="95.41015625" xlink:href="#DejaVuSans-30"/>
      </g>
     </g>
    </g>
    <g id="ytick_8">
     <g id="line2d_35">
      <g>
       <use style="stroke:#000000;stroke-width:0.5;" x="35.4828125" xlink:href="#mf5669f71ea" y="61.6390625"/>
      </g>
     </g>
     <g id="line2d_36">
      <g>
       <use style="stroke:#000000;stroke-width:0.5;" x="370.2828125" xlink:href="#md014295c16" y="61.6390625"/>
      </g>
     </g>
     <g id="text_17">
      <!-- 1.5 -->
      <g transform="translate(15.5796875 64.3984375)scale(0.1 -0.1)">
       <use xlink:href="#DejaVuSans-31"/>
       <use x="63.623046875" xlink:href="#DejaVuSans-2e"/>
       <use x="95.41015625" xlink:href="#DejaVuSans-35"/>
      </g>
     </g>
    </g>
    <g id="ytick_9">
     <g id="line2d_37">
      <g>
       <use style="stroke:#000000;stroke-width:0.5;" x="35.4828125" xlink:href="#mf5669f71ea" y="36.8390625"/>
      </g>
     </g>
     <g id="line2d_38">
      <g>
       <use style="stroke:#000000;stroke-width:0.5;" x="370.2828125" xlink:href="#md014295c16" y="36.8390625"/>
      </g>
     </g>
     <g id="text_18">
      <!-- 2.0 -->
      <g transform="translate(15.5796875 39.5984375)scale(0.1 -0.1)">
       <use xlink:href="#DejaVuSans-32"/>
       <use x="63.623046875" xlink:href="#DejaVuSans-2e"/>
       <use x="95.41015625" xlink:href="#DejaVuSans-30"/>
      </g>
     </g>
    </g>
    <g id="ytick_10">
     <g id="line2d_39">
      <g>
       <use style="stroke:#000000;stroke-width:0.5;" x="35.4828125" xlink:href="#mf5669f71ea" y="12.0390625"/>
      </g>
     </g>
     <g id="line2d_40">
      <g>
       <use style="stroke:#000000;stroke-width:0.5;" x="370.2828125" xlink:href="#md014295c16" y="12.0390625"/>
      </g>
     </g>
     <g id="text_19">
      <!-- 2.5 -->
      <g transform="translate(15.5796875 14.7984375)scale(0.1 -0.1)">
       <use xlink:href="#DejaVuSans-32"/>
       <use x="63.623046875" xlink:href="#DejaVuSans-2e"/>
       <use x="95.41015625" xlink:href="#DejaVuSans-35"/>
      </g>
     </g>
    </g>
   </g>
   <g id="legend_1">
    <g id="patch_7">
     <path d="M 306.345313 56.866562 
L 364.282813 56.866562 
L 364.282813 18.039062 
L 306.345313 18.039062 
z
" style="fill:#ffffff;stroke:#000000;stroke-linejoin:miter;"/>
    </g>
    <g id="line2d_41">
     <path d="M 314.745313 27.757187 
L 331.545313 27.757187 
" style="fill:none;stroke:#0000ff;stroke-linecap:square;"/>
    </g>
    <g id="line2d_42"/>
    <g id="text_20">
     <!-- y3 -->
     <defs>
      <path d="M 32.171875 -5.078125 
Q 28.375 -14.84375 24.75 -17.8125 
Q 21.140625 -20.796875 15.09375 -20.796875 
L 7.90625 -20.796875 
L 7.90625 -13.28125 
L 13.1875 -13.28125 
Q 16.890625 -13.28125 18.9375 -11.515625 
Q 21 -9.765625 23.484375 -3.21875 
L 25.09375 0.875 
L 2.984375 54.6875 
L 12.5 54.6875 
L 29.59375 11.921875 
L 46.6875 54.6875 
L 56.203125 54.6875 
z
" id="DejaVuSans-79"/>
     </defs>
     <g transform="translate(344.7453125 31.9571875)scale(0.12 -0.12)">
      <use xlink:href="#DejaVuSans-79"/>
      <use x="59.1796875" xlink:href="#DejaVuSans-33"/>
     </g>
    </g>
    <g id="line2d_43">
     <path d="M 314.745313 45.370937 
L 331.545313 45.370937 
" style="fill:none;stroke:#008000;stroke-linecap:square;"/>
    </g>
    <g id="line2d_44"/>
    <g id="text_21">
     <!-- y2 -->
     <g transform="translate(344.7453125 49.5709375)scale(0.12 -0.12)">
      <use xlink:href="#DejaVuSans-79"/>
      <use x="59.1796875" xlink:href="#DejaVuSans-32"/>
     </g>
    </g>
   </g>
  </g>
 </g>
 <defs>
  <clipPath id="pf25f367b79">
   <rect height="223.2" width="334.8" x="35.4828125" y="12.0390625"/>
  </clipPath>
 </defs>
</svg>
