<?xml version="1.0" encoding="utf-8" standalone="no"?>
<!DOCTYPE svg PUBLIC "-//W3C//DTD SVG 1.1//EN"
  "http://www.w3.org/Graphics/SVG/1.1/DTD/svg11.dtd">
<!-- Created with matplotlib (http://matplotlib.org/) -->
<svg height="256pt" version="1.1" viewBox="0 0 385 256" width="385pt" xmlns="http://www.w3.org/2000/svg" xmlns:xlink="http://www.w3.org/1999/xlink">
 <defs>
  <style type="text/css">
*{stroke-linecap:butt;stroke-linejoin:round;stroke-miterlimit:100000;}
  </style>
 </defs>
 <g id="figure_1">
  <g id="patch_1">
   <path d="M 0 256.117188 
L 385.434375 256.117188 
L 385.434375 0 
L 0 0 
L 0 256.117188 
z
" style="fill:none;"/>
  </g>
  <g id="axes_1">
   <g id="patch_2">
    <path d="M 35.482813 235.239062 
L 370.282813 235.239062 
L 370.282813 12.039062 
L 35.482813 12.039062 
z
" style="fill:#ffffff;"/>
   </g>
   <g id="line2d_1">
    <path clip-path="url(#pb1c4e03cc3)" d="M 35.482813 123.639062 
L 38.098438 92.638243 
L 40.714063 72.086585 
L 43.329688 68.911244 
L 45.945313 84.182504 
L 48.560938 112.753023 
L 51.176563 144.992798 
L 53.792188 170.035067 
L 56.407813 179.439062 
L 59.023438 170.035067 
L 61.639063 144.992798 
L 64.254688 112.753023 
L 66.870313 84.182504 
L 69.485938 68.911244 
L 72.101562 72.086585 
L 74.717188 92.638243 
L 79.948438 154.639882 
L 82.564063 175.19154 
L 85.179688 178.366881 
L 87.795313 163.095621 
L 90.410938 134.525102 
L 93.026563 102.285327 
L 95.642188 77.243058 
L 98.257813 67.839062 
L 100.873438 77.243058 
L 103.489063 102.285327 
L 106.104688 134.525102 
L 108.720313 163.095621 
L 111.335938 178.366881 
L 113.951563 175.19154 
L 116.567188 154.639882 
L 121.798438 92.638243 
L 124.414063 72.086585 
L 127.029688 68.911244 
L 129.645313 84.182504 
L 132.260938 112.753023 
L 134.876563 144.992798 
L 137.492188 170.035067 
L 140.107813 179.439062 
L 142.723438 170.035067 
L 145.339063 144.992798 
L 147.954688 112.753023 
L 150.570312 84.182504 
L 153.185938 68.911244 
L 155.801563 72.086585 
L 158.417188 92.638243 
L 163.648438 154.639882 
L 166.264063 175.19154 
L 168.879687 178.366881 
L 171.495313 163.095621 
L 174.110938 134.525102 
L 176.726562 102.285327 
L 179.342188 77.243058 
L 181.957812 67.839062 
L 184.573438 77.243058 
L 187.189063 102.285327 
L 189.804688 134.525102 
L 192.420313 163.095621 
L 195.035937 178.366881 
L 197.651563 175.19154 
L 200.267188 154.639882 
L 205.498438 92.638243 
L 208.114062 72.086585 
L 210.729688 68.911244 
L 213.345313 84.182504 
L 215.960938 112.753023 
L 218.576563 144.992798 
L 221.192187 170.035067 
L 223.807813 179.439062 
L 226.423438 170.035067 
L 229.039062 144.992798 
L 231.654688 112.753023 
L 234.270312 84.182504 
L 236.885938 68.911244 
L 239.501563 72.086585 
L 242.117188 92.638243 
L 247.348437 154.639882 
L 249.964063 175.19154 
L 252.579688 178.366881 
L 255.195312 163.095621 
L 257.810938 134.525102 
L 260.426562 102.285327 
L 263.042188 77.243058 
L 265.657813 67.839062 
L 268.273438 77.243058 
L 270.889063 102.285327 
L 273.504687 134.525102 
L 276.120313 163.095621 
L 278.735938 178.366881 
L 281.351562 175.19154 
L 283.967188 154.639882 
L 289.198438 92.638243 
L 291.814063 72.086585 
L 294.429688 68.911244 
L 297.045313 84.182504 
L 299.660938 112.753023 
L 302.276563 144.992798 
L 304.892188 170.035067 
L 307.507813 179.439062 
L 310.123438 170.035067 
L 312.739063 144.992798 
L 315.354688 112.753023 
L 317.970313 84.182504 
L 320.585938 68.911244 
L 323.201563 72.086585 
L 325.817188 92.638243 
L 331.048438 154.639882 
L 333.664063 175.19154 
L 336.279688 178.366881 
L 338.895313 163.095621 
L 341.510938 134.525102 
L 344.126563 102.285327 
L 346.742188 77.243058 
L 349.357813 67.839062 
L 351.973438 77.243058 
L 354.589063 102.285327 
L 357.204688 134.525102 
L 359.820313 163.095621 
L 362.435938 178.366881 
L 365.051563 175.19154 
L 367.667188 154.639882 
L 367.667188 154.639882 
" style="fill:none;stroke:#0000ff;stroke-linecap:square;"/>
   </g>
   <g id="line2d_2">
    <path clip-path="url(#pb1c4e03cc3)" d="M 35.482813 203.73196 
L 38.098438 156.712561 
L 40.714063 98.545384 
L 43.329688 48.836301 
L 45.945313 24.340295 
L 48.560938 33.314008 
L 51.176563 72.732755 
L 56.407813 183.975829 
L 59.023438 218.30448 
L 61.639063 220.725132 
L 64.254688 190.421878 
L 66.870313 137.608757 
L 69.485938 80.086999 
L 72.101562 37.244934 
L 74.717188 23.522941 
L 77.332813 43.546165 
L 79.948438 90.565564 
L 82.564063 148.732741 
L 85.179688 198.441824 
L 87.795313 222.93783 
L 90.410938 213.964117 
L 93.026563 174.54537 
L 98.257813 63.302296 
L 100.873438 28.973645 
L 103.489063 26.552993 
L 106.104688 56.856247 
L 108.720313 109.669368 
L 111.335938 167.191126 
L 113.951563 210.033191 
L 116.567188 223.755184 
L 119.182813 203.73196 
L 121.798438 156.712561 
L 124.414063 98.545384 
L 127.029688 48.836301 
L 129.645313 24.340295 
L 132.260938 33.314008 
L 134.876563 72.732755 
L 140.107813 183.975829 
L 142.723438 218.30448 
L 145.339063 220.725132 
L 147.954688 190.421878 
L 150.570312 137.608757 
L 153.185938 80.086999 
L 155.801563 37.244934 
L 158.417188 23.522941 
L 161.032813 43.546165 
L 163.648438 90.565564 
L 166.264063 148.732741 
L 168.879687 198.441824 
L 171.495313 222.93783 
L 174.110938 213.964117 
L 176.726562 174.54537 
L 181.957812 63.302296 
L 184.573438 28.973645 
L 187.189063 26.552993 
L 189.804688 56.856247 
L 192.420313 109.669368 
L 195.035937 167.191126 
L 197.651563 210.033191 
L 200.267188 223.755184 
L 202.882812 203.73196 
L 205.498438 156.712561 
L 208.114062 98.545384 
L 210.729688 48.836301 
L 213.345313 24.340295 
L 215.960938 33.314008 
L 218.576563 72.732755 
L 223.807813 183.975829 
L 226.423438 218.30448 
L 229.039062 220.725132 
L 231.654688 190.421878 
L 234.270312 137.608757 
L 236.885938 80.086999 
L 239.501563 37.244934 
L 242.117188 23.522941 
L 244.732813 43.546165 
L 247.348437 90.565564 
L 249.964063 148.732741 
L 252.579688 198.441824 
L 255.195312 222.93783 
L 257.810938 213.964117 
L 260.426562 174.54537 
L 265.657813 63.302296 
L 268.273438 28.973645 
L 270.889063 26.552993 
L 273.504687 56.856247 
L 276.120313 109.669368 
L 278.735938 167.191126 
L 281.351562 210.033191 
L 283.967188 223.755184 
L 286.582813 203.73196 
L 289.198438 156.712561 
L 291.814063 98.545384 
L 294.429688 48.836301 
L 297.045313 24.340295 
L 299.660938 33.314008 
L 302.276563 72.732755 
L 307.507813 183.975829 
L 310.123438 218.30448 
L 312.739063 220.725132 
L 315.354688 190.421878 
L 317.970313 137.608757 
L 320.585938 80.086999 
L 323.201563 37.244934 
L 325.817188 23.522941 
L 328.432813 43.546165 
L 331.048438 90.565564 
L 333.664063 148.732741 
L 336.279688 198.441824 
L 338.895313 222.93783 
L 341.510938 213.964117 
L 344.126563 174.54537 
L 349.357813 63.302296 
L 351.973438 28.973645 
L 354.589063 26.552993 
L 357.204688 56.856247 
L 359.820313 109.669368 
L 362.435938 167.191126 
L 365.051563 210.033191 
L 367.667188 223.755184 
L 367.667188 223.755184 
" style="fill:none;stroke:#008000;stroke-linecap:square;"/>
   </g>
   <g id="patch_3">
    <path d="M 35.482813 235.239062 
L 370.282813 235.239062 
" style="fill:none;stroke:#000000;stroke-linecap:square;stroke-linejoin:miter;"/>
   </g>
   <g id="patch_4">
    <path d="M 35.482813 12.039062 
L 370.282813 12.039062 
" style="fill:none;stroke:#000000;stroke-linecap:square;stroke-linejoin:miter;"/>
   </g>
   <g id="patch_5">
    <path d="M 370.282813 235.239062 
L 370.282813 12.039062 
" style="fill:none;stroke:#000000;stroke-linecap:square;stroke-linejoin:miter;"/>
   </g>
   <g id="patch_6">
    <path d="M 35.482813 235.239062 
L 35.482813 12.039062 
" style="fill:none;stroke:#000000;stroke-linecap:square;stroke-linejoin:miter;"/>
   </g>
   <g id="matplotlib.axis_1">
    <g id="xtick_1">
     <g id="line2d_3">
      <path clip-path="url(#pb1c4e03cc3)" d="M 35.482813 235.239062 
L 35.482813 12.039062 
" style="fill:none;stroke:#000000;stroke-dasharray:1.000000,3.000000;stroke-dashoffset:0.0;stroke-width:0.5;"/>
     </g>
     <g id="line2d_4">
      <defs>
       <path d="M 0 0 
L 0 -4 
" id="mb44cc0f407" style="stroke:#000000;stroke-width:0.5;"/>
      </defs>
      <g>
       <use style="stroke:#000000;stroke-width:0.5;" x="35.4828125" xlink:href="#mb44cc0f407" y="235.2390625"/>
      </g>
     </g>
     <g id="line2d_5">
      <defs>
       <path d="M 0 0 
L 0 4 
" id="m58e3468ae3" style="stroke:#000000;stroke-width:0.5;"/>
      </defs>
      <g>
       <use style="stroke:#000000;stroke-width:0.5;" x="35.4828125" xlink:href="#m58e3468ae3" y="12.0390625"/>
      </g>
     </g>
     <g id="text_1">
      <!-- 0.0 -->
      <defs>
       <path d="M 31.78125 66.40625 
Q 24.171875 66.40625 20.328125 58.90625 
Q 16.5 51.421875 16.5 36.375 
Q 16.5 21.390625 20.328125 13.890625 
Q 24.171875 6.390625 31.78125 6.390625 
Q 39.453125 6.390625 43.28125 13.890625 
Q 47.125 21.390625 47.125 36.375 
Q 47.125 51.421875 43.28125 58.90625 
Q 39.453125 66.40625 31.78125 66.40625 
M 31.78125 74.21875 
Q 44.046875 74.21875 50.515625 64.515625 
Q 56.984375 54.828125 56.984375 36.375 
Q 56.984375 17.96875 50.515625 8.265625 
Q 44.046875 -1.421875 31.78125 -1.421875 
Q 19.53125 -1.421875 13.0625 8.265625 
Q 6.59375 17.96875 6.59375 36.375 
Q 6.59375 54.828125 13.0625 64.515625 
Q 19.53125 74.21875 31.78125 74.21875 
" id="DejaVuSans-30"/>
       <path d="M 10.6875 12.40625 
L 21 12.40625 
L 21 0 
L 10.6875 0 
z
" id="DejaVuSans-2e"/>
      </defs>
      <g transform="translate(27.53125 246.8375)scale(0.1 -0.1)">
       <use xlink:href="#DejaVuSans-30"/>
       <use x="63.623046875" xlink:href="#DejaVuSans-2e"/>
       <use x="95.41015625" xlink:href="#DejaVuSans-30"/>
      </g>
     </g>
    </g>
    <g id="xtick_2">
     <g id="line2d_6">
      <path clip-path="url(#pb1c4e03cc3)" d="M 77.332813 235.239062 
L 77.332813 12.039062 
" style="fill:none;stroke:#000000;stroke-dasharray:1.000000,3.000000;stroke-dashoffset:0.0;stroke-width:0.5;"/>
     </g>
     <g id="line2d_7">
      <g>
       <use style="stroke:#000000;stroke-width:0.5;" x="77.3328125" xlink:href="#mb44cc0f407" y="235.2390625"/>
      </g>
     </g>
     <g id="line2d_8">
      <g>
       <use style="stroke:#000000;stroke-width:0.5;" x="77.3328125" xlink:href="#m58e3468ae3" y="12.0390625"/>
      </g>
     </g>
     <g id="text_2">
      <!-- 0.5 -->
      <defs>
       <path d="M 10.796875 72.90625 
L 49.515625 72.90625 
L 49.515625 64.59375 
L 19.828125 64.59375 
L 19.828125 46.734375 
Q 21.96875 47.46875 24.109375 47.828125 
Q 26.265625 48.1875 28.421875 48.1875 
Q 40.625 48.1875 47.75 41.5 
Q 54.890625 34.8125 54.890625 23.390625 
Q 54.890625 11.625 47.5625 5.09375 
Q 40.234375 -1.421875 26.90625 -1.421875 
Q 22.3125 -1.421875 17.546875 -0.640625 
Q 12.796875 0.140625 7.71875 1.703125 
L 7.71875 11.625 
Q 12.109375 9.234375 16.796875 8.0625 
Q 21.484375 6.890625 26.703125 6.890625 
Q 35.15625 6.890625 40.078125 11.328125 
Q 45.015625 15.765625 45.015625 23.390625 
Q 45.015625 31 40.078125 35.4375 
Q 35.15625 39.890625 26.703125 39.890625 
Q 22.75 39.890625 18.8125 39.015625 
Q 14.890625 38.140625 10.796875 36.28125 
z
" id="DejaVuSans-35"/>
      </defs>
      <g transform="translate(69.38125 246.8375)scale(0.1 -0.1)">
       <use xlink:href="#DejaVuSans-30"/>
       <use x="63.623046875" xlink:href="#DejaVuSans-2e"/>
       <use x="95.41015625" xlink:href="#DejaVuSans-35"/>
      </g>
     </g>
    </g>
    <g id="xtick_3">
     <g id="line2d_9">
      <path clip-path="url(#pb1c4e03cc3)" d="M 119.182813 235.239062 
L 119.182813 12.039062 
" style="fill:none;stroke:#000000;stroke-dasharray:1.000000,3.000000;stroke-dashoffset:0.0;stroke-width:0.5;"/>
     </g>
     <g id="line2d_10">
      <g>
       <use style="stroke:#000000;stroke-width:0.5;" x="119.1828125" xlink:href="#mb44cc0f407" y="235.2390625"/>
      </g>
     </g>
     <g id="line2d_11">
      <g>
       <use style="stroke:#000000;stroke-width:0.5;" x="119.1828125" xlink:href="#m58e3468ae3" y="12.0390625"/>
      </g>
     </g>
     <g id="text_3">
      <!-- 1.0 -->
      <defs>
       <path d="M 12.40625 8.296875 
L 28.515625 8.296875 
L 28.515625 63.921875 
L 10.984375 60.40625 
L 10.984375 69.390625 
L 28.421875 72.90625 
L 38.28125 72.90625 
L 38.28125 8.296875 
L 54.390625 8.296875 
L 54.390625 0 
L 12.40625 0 
z
" id="DejaVuSans-31"/>
      </defs>
      <g transform="translate(111.23125 246.8375)scale(0.1 -0.1)">
       <use xlink:href="#DejaVuSans-31"/>
       <use x="63.623046875" xlink:href="#DejaVuSans-2e"/>
       <use x="95.41015625" xlink:href="#DejaVuSans-30"/>
      </g>
     </g>
    </g>
    <g id="xtick_4">
     <g id="line2d_12">
      <path clip-path="url(#pb1c4e03cc3)" d="M 161.032813 235.239062 
L 161.032813 12.039062 
" style="fill:none;stroke:#000000;stroke-dasharray:1.000000,3.000000;stroke-dashoffset:0.0;stroke-width:0.5;"/>
     </g>
     <g id="line2d_13">
      <g>
       <use style="stroke:#000000;stroke-width:0.5;" x="161.0328125" xlink:href="#mb44cc0f407" y="235.2390625"/>
      </g>
     </g>
     <g id="line2d_14">
      <g>
       <use style="stroke:#000000;stroke-width:0.5;" x="161.0328125" xlink:href="#m58e3468ae3" y="12.0390625"/>
      </g>
     </g>
     <g id="text_4">
      <!-- 1.5 -->
      <g transform="translate(153.08125 246.8375)scale(0.1 -0.1)">
       <use xlink:href="#DejaVuSans-31"/>
       <use x="63.623046875" xlink:href="#DejaVuSans-2e"/>
       <use x="95.41015625" xlink:href="#DejaVuSans-35"/>
      </g>
     </g>
    </g>
    <g id="xtick_5">
     <g id="line2d_15">
      <path clip-path="url(#pb1c4e03cc3)" d="M 202.882812 235.239062 
L 202.882812 12.039062 
" style="fill:none;stroke:#000000;stroke-dasharray:1.000000,3.000000;stroke-dashoffset:0.0;stroke-width:0.5;"/>
     </g>
     <g id="line2d_16">
      <g>
       <use style="stroke:#000000;stroke-width:0.5;" x="202.8828125" xlink:href="#mb44cc0f407" y="235.2390625"/>
      </g>
     </g>
     <g id="line2d_17">
      <g>
       <use style="stroke:#000000;stroke-width:0.5;" x="202.8828125" xlink:href="#m58e3468ae3" y="12.0390625"/>
      </g>
     </g>
     <g id="text_5">
      <!-- 2.0 -->
      <defs>
       <path d="M 19.1875 8.296875 
L 53.609375 8.296875 
L 53.609375 0 
L 7.328125 0 
L 7.328125 8.296875 
Q 12.9375 14.109375 22.625 23.890625 
Q 32.328125 33.6875 34.8125 36.53125 
Q 39.546875 41.84375 41.421875 45.53125 
Q 43.3125 49.21875 43.3125 52.78125 
Q 43.3125 58.59375 39.234375 62.25 
Q 35.15625 65.921875 28.609375 65.921875 
Q 23.96875 65.921875 18.8125 64.3125 
Q 13.671875 62.703125 7.8125 59.421875 
L 7.8125 69.390625 
Q 13.765625 71.78125 18.9375 73 
Q 24.125 74.21875 28.421875 74.21875 
Q 39.75 74.21875 46.484375 68.546875 
Q 53.21875 62.890625 53.21875 53.421875 
Q 53.21875 48.921875 51.53125 44.890625 
Q 49.859375 40.875 45.40625 35.40625 
Q 44.1875 33.984375 37.640625 27.21875 
Q 31.109375 20.453125 19.1875 8.296875 
" id="DejaVuSans-32"/>
      </defs>
      <g transform="translate(194.93125 246.8375)scale(0.1 -0.1)">
       <use xlink:href="#DejaVuSans-32"/>
       <use x="63.623046875" xlink:href="#DejaVuSans-2e"/>
       <use x="95.41015625" xlink:href="#DejaVuSans-30"/>
      </g>
     </g>
    </g>
    <g id="xtick_6">
     <g id="line2d_18">
      <path clip-path="url(#pb1c4e03cc3)" d="M 244.732813 235.239062 
L 244.732813 12.039062 
" style="fill:none;stroke:#000000;stroke-dasharray:1.000000,3.000000;stroke-dashoffset:0.0;stroke-width:0.5;"/>
     </g>
     <g id="line2d_19">
      <g>
       <use style="stroke:#000000;stroke-width:0.5;" x="244.7328125" xlink:href="#mb44cc0f407" y="235.2390625"/>
      </g>
     </g>
     <g id="line2d_20">
      <g>
       <use style="stroke:#000000;stroke-width:0.5;" x="244.7328125" xlink:href="#m58e3468ae3" y="12.0390625"/>
      </g>
     </g>
     <g id="text_6">
      <!-- 2.5 -->
      <g transform="translate(236.78125 246.8375)scale(0.1 -0.1)">
       <use xlink:href="#DejaVuSans-32"/>
       <use x="63.623046875" xlink:href="#DejaVuSans-2e"/>
       <use x="95.41015625" xlink:href="#DejaVuSans-35"/>
      </g>
     </g>
    </g>
    <g id="xtick_7">
     <g id="line2d_21">
      <path clip-path="url(#pb1c4e03cc3)" d="M 286.582813 235.239062 
L 286.582813 12.039062 
" style="fill:none;stroke:#000000;stroke-dasharray:1.000000,3.000000;stroke-dashoffset:0.0;stroke-width:0.5;"/>
     </g>
     <g id="line2d_22">
      <g>
       <use style="stroke:#000000;stroke-width:0.5;" x="286.5828125" xlink:href="#mb44cc0f407" y="235.2390625"/>
      </g>
     </g>
     <g id="line2d_23">
      <g>
       <use style="stroke:#000000;stroke-width:0.5;" x="286.5828125" xlink:href="#m58e3468ae3" y="12.0390625"/>
      </g>
     </g>
     <g id="text_7">
      <!-- 3.0 -->
      <defs>
       <path d="M 40.578125 39.3125 
Q 47.65625 37.796875 51.625 33 
Q 55.609375 28.21875 55.609375 21.1875 
Q 55.609375 10.40625 48.1875 4.484375 
Q 40.765625 -1.421875 27.09375 -1.421875 
Q 22.515625 -1.421875 17.65625 -0.515625 
Q 12.796875 0.390625 7.625 2.203125 
L 7.625 11.71875 
Q 11.71875 9.328125 16.59375 8.109375 
Q 21.484375 6.890625 26.8125 6.890625 
Q 36.078125 6.890625 40.9375 10.546875 
Q 45.796875 14.203125 45.796875 21.1875 
Q 45.796875 27.640625 41.28125 31.265625 
Q 36.765625 34.90625 28.71875 34.90625 
L 20.21875 34.90625 
L 20.21875 43.015625 
L 29.109375 43.015625 
Q 36.375 43.015625 40.234375 45.921875 
Q 44.09375 48.828125 44.09375 54.296875 
Q 44.09375 59.90625 40.109375 62.90625 
Q 36.140625 65.921875 28.71875 65.921875 
Q 24.65625 65.921875 20.015625 65.03125 
Q 15.375 64.15625 9.8125 62.3125 
L 9.8125 71.09375 
Q 15.4375 72.65625 20.34375 73.4375 
Q 25.25 74.21875 29.59375 74.21875 
Q 40.828125 74.21875 47.359375 69.109375 
Q 53.90625 64.015625 53.90625 55.328125 
Q 53.90625 49.265625 50.4375 45.09375 
Q 46.96875 40.921875 40.578125 39.3125 
" id="DejaVuSans-33"/>
      </defs>
      <g transform="translate(278.63125 246.8375)scale(0.1 -0.1)">
       <use xlink:href="#DejaVuSans-33"/>
       <use x="63.623046875" xlink:href="#DejaVuSans-2e"/>
       <use x="95.41015625" xlink:href="#DejaVuSans-30"/>
      </g>
     </g>
    </g>
    <g id="xtick_8">
     <g id="line2d_24">
      <path clip-path="url(#pb1c4e03cc3)" d="M 328.432813 235.239062 
L 328.432813 12.039062 
" style="fill:none;stroke:#000000;stroke-dasharray:1.000000,3.000000;stroke-dashoffset:0.0;stroke-width:0.5;"/>
     </g>
     <g id="line2d_25">
      <g>
       <use style="stroke:#000000;stroke-width:0.5;" x="328.4328125" xlink:href="#mb44cc0f407" y="235.2390625"/>
      </g>
     </g>
     <g id="line2d_26">
      <g>
       <use style="stroke:#000000;stroke-width:0.5;" x="328.4328125" xlink:href="#m58e3468ae3" y="12.0390625"/>
      </g>
     </g>
     <g id="text_8">
      <!-- 3.5 -->
      <g transform="translate(320.48125 246.8375)scale(0.1 -0.1)">
       <use xlink:href="#DejaVuSans-33"/>
       <use x="63.623046875" xlink:href="#DejaVuSans-2e"/>
       <use x="95.41015625" xlink:href="#DejaVuSans-35"/>
      </g>
     </g>
    </g>
    <g id="xtick_9">
     <g id="line2d_27">
      <path clip-path="url(#pb1c4e03cc3)" d="M 370.282813 235.239062 
L 370.282813 12.039062 
" style="fill:none;stroke:#000000;stroke-dasharray:1.000000,3.000000;stroke-dashoffset:0.0;stroke-width:0.5;"/>
     </g>
     <g id="line2d_28">
      <g>
       <use style="stroke:#000000;stroke-width:0.5;" x="370.2828125" xlink:href="#mb44cc0f407" y="235.2390625"/>
      </g>
     </g>
     <g id="line2d_29">
      <g>
       <use style="stroke:#000000;stroke-width:0.5;" x="370.2828125" xlink:href="#m58e3468ae3" y="12.0390625"/>
      </g>
     </g>
     <g id="text_9">
      <!-- 4.0 -->
      <defs>
       <path d="M 37.796875 64.3125 
L 12.890625 25.390625 
L 37.796875 25.390625 
z
M 35.203125 72.90625 
L 47.609375 72.90625 
L 47.609375 25.390625 
L 58.015625 25.390625 
L 58.015625 17.1875 
L 47.609375 17.1875 
L 47.609375 0 
L 37.796875 0 
L 37.796875 17.1875 
L 4.890625 17.1875 
L 4.890625 26.703125 
z
" id="DejaVuSans-34"/>
      </defs>
      <g transform="translate(362.33125 246.8375)scale(0.1 -0.1)">
       <use xlink:href="#DejaVuSans-34"/>
       <use x="63.623046875" xlink:href="#DejaVuSans-2e"/>
       <use x="95.41015625" xlink:href="#DejaVuSans-30"/>
      </g>
     </g>
    </g>
   </g>
   <g id="matplotlib.axis_2">
    <g id="ytick_1">
     <g id="line2d_30">
      <path clip-path="url(#pb1c4e03cc3)" d="M 35.482813 235.239062 
L 370.282813 235.239062 
" style="fill:none;stroke:#000000;stroke-dasharray:1.000000,3.000000;stroke-dashoffset:0.0;stroke-width:0.5;"/>
     </g>
     <g id="line2d_31">
      <defs>
       <path d="M 0 0 
L 4 0 
" id="m5586462953" style="stroke:#000000;stroke-width:0.5;"/>
      </defs>
      <g>
       <use style="stroke:#000000;stroke-width:0.5;" x="35.4828125" xlink:href="#m5586462953" y="235.2390625"/>
      </g>
     </g>
     <g id="line2d_32">
      <defs>
       <path d="M 0 0 
L -4 0 
" id="m79744da11a" style="stroke:#000000;stroke-width:0.5;"/>
      </defs>
      <g>
       <use style="stroke:#000000;stroke-width:0.5;" x="370.2828125" xlink:href="#m79744da11a" y="235.2390625"/>
      </g>
     </g>
     <g id="text_10">
      <!-- −2.0 -->
      <defs>
       <path d="M 10.59375 35.5 
L 73.1875 35.5 
L 73.1875 27.203125 
L 10.59375 27.203125 
z
" id="DejaVuSans-2212"/>
      </defs>
      <g transform="translate(7.2 237.9984375)scale(0.1 -0.1)">
       <use xlink:href="#DejaVuSans-2212"/>
       <use x="83.7890625" xlink:href="#DejaVuSans-32"/>
       <use x="147.412109375" xlink:href="#DejaVuSans-2e"/>
       <use x="179.19921875" xlink:href="#DejaVuSans-30"/>
      </g>
     </g>
    </g>
    <g id="ytick_2">
     <g id="line2d_33">
      <path clip-path="url(#pb1c4e03cc3)" d="M 35.482813 207.339062 
L 370.282813 207.339062 
" style="fill:none;stroke:#000000;stroke-dasharray:1.000000,3.000000;stroke-dashoffset:0.0;stroke-width:0.5;"/>
     </g>
     <g id="line2d_34">
      <g>
       <use style="stroke:#000000;stroke-width:0.5;" x="35.4828125" xlink:href="#m5586462953" y="207.3390625"/>
      </g>
     </g>
     <g id="line2d_35">
      <g>
       <use style="stroke:#000000;stroke-width:0.5;" x="370.2828125" xlink:href="#m79744da11a" y="207.3390625"/>
      </g>
     </g>
     <g id="text_11">
      <!-- −1.5 -->
      <g transform="translate(7.2 210.0984375)scale(0.1 -0.1)">
       <use xlink:href="#DejaVuSans-2212"/>
       <use x="83.7890625" xlink:href="#DejaVuSans-31"/>
       <use x="147.412109375" xlink:href="#DejaVuSans-2e"/>
       <use x="179.19921875" xlink:href="#DejaVuSans-35"/>
      </g>
     </g>
    </g>
    <g id="ytick_3">
     <g id="line2d_36">
      <path clip-path="url(#pb1c4e03cc3)" d="M 35.482813 179.439062 
L 370.282813 179.439062 
" style="fill:none;stroke:#000000;stroke-dasharray:1.000000,3.000000;stroke-dashoffset:0.0;stroke-width:0.5;"/>
     </g>
     <g id="line2d_37">
      <g>
       <use style="stroke:#000000;stroke-width:0.5;" x="35.4828125" xlink:href="#m5586462953" y="179.4390625"/>
      </g>
     </g>
     <g id="line2d_38">
      <g>
       <use style="stroke:#000000;stroke-width:0.5;" x="370.2828125" xlink:href="#m79744da11a" y="179.4390625"/>
      </g>
     </g>
     <g id="text_12">
      <!-- −1.0 -->
      <g transform="translate(7.2 182.1984375)scale(0.1 -0.1)">
       <use xlink:href="#DejaVuSans-2212"/>
       <use x="83.7890625" xlink:href="#DejaVuSans-31"/>
       <use x="147.412109375" xlink:href="#DejaVuSans-2e"/>
       <use x="179.19921875" xlink:href="#DejaVuSans-30"/>
      </g>
     </g>
    </g>
    <g id="ytick_4">
     <g id="line2d_39">
      <path clip-path="url(#pb1c4e03cc3)" d="M 35.482813 151.539062 
L 370.282813 151.539062 
" style="fill:none;stroke:#000000;stroke-dasharray:1.000000,3.000000;stroke-dashoffset:0.0;stroke-width:0.5;"/>
     </g>
     <g id="line2d_40">
      <g>
       <use style="stroke:#000000;stroke-width:0.5;" x="35.4828125" xlink:href="#m5586462953" y="151.5390625"/>
      </g>
     </g>
     <g id="line2d_41">
      <g>
       <use style="stroke:#000000;stroke-width:0.5;" x="370.2828125" xlink:href="#m79744da11a" y="151.5390625"/>
      </g>
     </g>
     <g id="text_13">
      <!-- −0.5 -->
      <g transform="translate(7.2 154.2984375)scale(0.1 -0.1)">
       <use xlink:href="#DejaVuSans-2212"/>
       <use x="83.7890625" xlink:href="#DejaVuSans-30"/>
       <use x="147.412109375" xlink:href="#DejaVuSans-2e"/>
       <use x="179.19921875" xlink:href="#DejaVuSans-35"/>
      </g>
     </g>
    </g>
    <g id="ytick_5">
     <g id="line2d_42">
      <path clip-path="url(#pb1c4e03cc3)" d="M 35.482813 123.639062 
L 370.282813 123.639062 
" style="fill:none;stroke:#000000;stroke-dasharray:1.000000,3.000000;stroke-dashoffset:0.0;stroke-width:0.5;"/>
     </g>
     <g id="line2d_43">
      <g>
       <use style="stroke:#000000;stroke-width:0.5;" x="35.4828125" xlink:href="#m5586462953" y="123.6390625"/>
      </g>
     </g>
     <g id="line2d_44">
      <g>
       <use style="stroke:#000000;stroke-width:0.5;" x="370.2828125" xlink:href="#m79744da11a" y="123.6390625"/>
      </g>
     </g>
     <g id="text_14">
      <!-- 0.0 -->
      <g transform="translate(15.5796875 126.3984375)scale(0.1 -0.1)">
       <use xlink:href="#DejaVuSans-30"/>
       <use x="63.623046875" xlink:href="#DejaVuSans-2e"/>
       <use x="95.41015625" xlink:href="#DejaVuSans-30"/>
      </g>
     </g>
    </g>
    <g id="ytick_6">
     <g id="line2d_45">
      <path clip-path="url(#pb1c4e03cc3)" d="M 35.482813 95.739062 
L 370.282813 95.739062 
" style="fill:none;stroke:#000000;stroke-dasharray:1.000000,3.000000;stroke-dashoffset:0.0;stroke-width:0.5;"/>
     </g>
     <g id="line2d_46">
      <g>
       <use style="stroke:#000000;stroke-width:0.5;" x="35.4828125" xlink:href="#m5586462953" y="95.7390625"/>
      </g>
     </g>
     <g id="line2d_47">
      <g>
       <use style="stroke:#000000;stroke-width:0.5;" x="370.2828125" xlink:href="#m79744da11a" y="95.7390625"/>
      </g>
     </g>
     <g id="text_15">
      <!-- 0.5 -->
      <g transform="translate(15.5796875 98.4984375)scale(0.1 -0.1)">
       <use xlink:href="#DejaVuSans-30"/>
       <use x="63.623046875" xlink:href="#DejaVuSans-2e"/>
       <use x="95.41015625" xlink:href="#DejaVuSans-35"/>
      </g>
     </g>
    </g>
    <g id="ytick_7">
     <g id="line2d_48">
      <path clip-path="url(#pb1c4e03cc3)" d="M 35.482813 67.839062 
L 370.282813 67.839062 
" style="fill:none;stroke:#000000;stroke-dasharray:1.000000,3.000000;stroke-dashoffset:0.0;stroke-width:0.5;"/>
     </g>
     <g id="line2d_49">
      <g>
       <use style="stroke:#000000;stroke-width:0.5;" x="35.4828125" xlink:href="#m5586462953" y="67.8390625"/>
      </g>
     </g>
     <g id="line2d_50">
      <g>
       <use style="stroke:#000000;stroke-width:0.5;" x="370.2828125" xlink:href="#m79744da11a" y="67.8390625"/>
      </g>
     </g>
     <g id="text_16">
      <!-- 1.0 -->
      <g transform="translate(15.5796875 70.5984375)scale(0.1 -0.1)">
       <use xlink:href="#DejaVuSans-31"/>
       <use x="63.623046875" xlink:href="#DejaVuSans-2e"/>
       <use x="95.41015625" xlink:href="#DejaVuSans-30"/>
      </g>
     </g>
    </g>
    <g id="ytick_8">
     <g id="line2d_51">
      <path clip-path="url(#pb1c4e03cc3)" d="M 35.482813 39.939063 
L 370.282813 39.939063 
" style="fill:none;stroke:#000000;stroke-dasharray:1.000000,3.000000;stroke-dashoffset:0.0;stroke-width:0.5;"/>
     </g>
     <g id="line2d_52">
      <g>
       <use style="stroke:#000000;stroke-width:0.5;" x="35.4828125" xlink:href="#m5586462953" y="39.9390625"/>
      </g>
     </g>
     <g id="line2d_53">
      <g>
       <use style="stroke:#000000;stroke-width:0.5;" x="370.2828125" xlink:href="#m79744da11a" y="39.9390625"/>
      </g>
     </g>
     <g id="text_17">
      <!-- 1.5 -->
      <g transform="translate(15.5796875 42.6984375)scale(0.1 -0.1)">
       <use xlink:href="#DejaVuSans-31"/>
       <use x="63.623046875" xlink:href="#DejaVuSans-2e"/>
       <use x="95.41015625" xlink:href="#DejaVuSans-35"/>
      </g>
     </g>
    </g>
    <g id="ytick_9">
     <g id="line2d_54">
      <path clip-path="url(#pb1c4e03cc3)" d="M 35.482813 12.039062 
L 370.282813 12.039062 
" style="fill:none;stroke:#000000;stroke-dasharray:1.000000,3.000000;stroke-dashoffset:0.0;stroke-width:0.5;"/>
     </g>
     <g id="line2d_55">
      <g>
       <use style="stroke:#000000;stroke-width:0.5;" x="35.4828125" xlink:href="#m5586462953" y="12.0390625"/>
      </g>
     </g>
     <g id="line2d_56">
      <g>
       <use style="stroke:#000000;stroke-width:0.5;" x="370.2828125" xlink:href="#m79744da11a" y="12.0390625"/>
      </g>
     </g>
     <g id="text_18">
      <!-- 2.0 -->
      <g transform="translate(15.5796875 14.7984375)scale(0.1 -0.1)">
       <use xlink:href="#DejaVuSans-32"/>
       <use x="63.623046875" xlink:href="#DejaVuSans-2e"/>
       <use x="95.41015625" xlink:href="#DejaVuSans-30"/>
      </g>
     </g>
    </g>
   </g>
  </g>
 </g>
 <defs>
  <clipPath id="pb1c4e03cc3">
   <rect height="223.2" width="334.8" x="35.4828125" y="12.0390625"/>
  </clipPath>
 </defs>
</svg>
